<svg width="20" height="20" viewBox="0 0 20 20" fill="none" xmlns="http://www.w3.org/2000/svg">
<path d="M13.3333 6.66699C14.6594 6.66699 15.9311 7.19378 16.8688 8.13146C17.8065 9.06914 18.3333 10.3409 18.3333 11.667V17.5003H15V11.667C15 11.225 14.8244 10.801 14.5118 10.4885C14.1992 10.1759 13.7753 10.0003 13.3333 10.0003C12.8913 10.0003 12.4673 10.1759 12.1548 10.4885C11.8422 10.801 11.6666 11.225 11.6666 11.667V17.5003H8.33329V11.667C8.33329 10.3409 8.86008 9.06914 9.79776 8.13146C10.7354 7.19378 12.0072 6.66699 13.3333 6.66699Z" fill="#9C90CC"/>
<path d="M4.99996 7.50033H1.66663V17.5003H4.99996V7.50033Z" fill="#9C90CC"/>
<path d="M3.33329 5.00033C4.25377 5.00033 4.99996 4.25413 4.99996 3.33366C4.99996 2.41318 4.25377 1.66699 3.33329 1.66699C2.41282 1.66699 1.66663 2.41318 1.66663 3.33366C1.66663 4.25413 2.41282 5.00033 3.33329 5.00033Z" fill="#9C90CC"/>
</svg>
