<svg width="20" height="20" viewBox="0 0 20 20" fill="none" xmlns="http://www.w3.org/2000/svg">
<path d="M10 3.33301C10 3.33301 15.7337 3.33262 17.167 3.68262C17.5592 3.79362 17.9154 4.00625 18.1992 4.29883C18.4831 4.59144 18.6842 4.95415 18.7832 5.34961C19.0475 6.81508 19.1763 8.30192 19.167 9.79102C19.1723 11.2579 19.0435 12.7224 18.7832 14.166C18.6842 14.5614 18.483 14.9242 18.1992 15.2168C17.9154 15.5094 17.5592 15.722 17.167 15.833C15.7337 16.2163 10 16.2168 10 16.2168C9.99382 16.2168 4.26557 16.2161 2.83301 15.833C2.44889 15.7278 2.09852 15.5252 1.81543 15.2451C1.53233 14.9649 1.32596 14.6164 1.2168 14.2334C0.952437 12.7678 0.823657 11.2802 0.833008 9.79102C0.825725 8.31305 0.954495 6.83733 1.2168 5.38281C1.31581 4.9874 1.51697 4.62462 1.80078 4.33203C2.08453 4.03954 2.44092 3.82781 2.83301 3.7168C4.26557 3.33367 9.99381 3.33301 10 3.33301ZM8.125 12.5166L12.917 9.79102L8.125 7.06641V12.5166Z" fill="#9C90CC"/>
</svg>
