<?xml version="1.0" encoding="UTF-8"?>
<svg id="Layer_1" xmlns="http://www.w3.org/2000/svg" version="1.1" viewBox="0 0 278.35 180">
  <!-- Generator: Adobe Illustrator 29.8.2, SVG Export Plug-In . SVG Version: 2.1.1 Build 3)  -->
  <defs>
    <style>
      .st0 {
        fill: #f90;
      }

      .st1 {
        fill: #fff;
      }
    </style>
  </defs>
  <path class="st1" d="M82.15,68.68c0,3.22.35,5.82.96,7.74.7,1.91,1.56,4,2.78,6.26.43.7.61,1.39.61,2,0,.87-.52,1.74-1.65,2.61l-5.48,3.65c-.78.52-1.56.78-2.26.78-.87,0-1.74-.43-2.61-1.22-1.22-1.3-2.26-2.69-3.13-4.09-.87-1.48-1.74-3.13-2.69-5.13-6.78,8-15.3,12-25.56,12-7.3,0-13.13-2.09-17.39-6.26-4.26-4.17-6.43-9.74-6.43-16.69,0-7.39,2.61-13.39,7.91-17.91s12.34-6.78,21.3-6.78c2.96,0,6,.26,9.21.7s6.52,1.13,10,1.91v-6.35c0-6.61-1.39-11.21-4.09-13.91-2.78-2.69-7.48-4-14.17-4-3.04,0-6.17.35-9.39,1.13s-6.35,1.74-9.39,2.96c-1.39.61-2.43.96-3.04,1.13-.61.17-1.04.26-1.39.26-1.22,0-1.83-.87-1.83-2.69v-4.26c0-1.39.17-2.43.61-3.04s1.22-1.22,2.43-1.83c3.04-1.56,6.69-2.87,10.95-3.91,4.26-1.13,8.78-1.65,13.56-1.65,10.34,0,17.91,2.35,22.78,7.04,4.78,4.69,7.22,11.82,7.22,21.39v28.17h.17ZM46.85,81.89c2.87,0,5.82-.52,8.95-1.56,3.13-1.04,5.91-2.96,8.26-5.56,1.39-1.65,2.43-3.48,2.96-5.56s.87-4.61.87-7.56v-3.65c-2.52-.61-5.22-1.13-8-1.48s-5.48-.52-8.17-.52c-5.82,0-10.08,1.13-12.95,3.48-2.87,2.35-4.26,5.65-4.26,10,0,4.09,1.04,7.13,3.22,9.21,2.09,2.17,5.13,3.22,9.13,3.22h0ZM116.66,91.28c-1.56,0-2.61-.26-3.3-.87-.7-.52-1.3-1.74-1.83-3.39l-20.43-67.2c-.52-1.74-.78-2.87-.78-3.48,0-1.39.7-2.17,2.09-2.17h8.52c1.65,0,2.78.26,3.39.87.7.52,1.22,1.74,1.74,3.39l14.6,57.55,13.56-57.55c.43-1.74.96-2.87,1.65-3.39.7-.52,1.91-.87,3.48-.87h6.95c1.65,0,2.78.26,3.48.87.7.52,1.3,1.74,1.65,3.39l13.74,58.24,15.04-58.24c.52-1.74,1.13-2.87,1.74-3.39.7-.52,1.83-.87,3.39-.87h8.08c1.39,0,2.17.7,2.17,2.17,0,.43-.09.87-.17,1.39-.09.52-.26,1.22-.61,2.17l-20.95,67.2c-.52,1.74-1.13,2.87-1.83,3.39s-1.83.87-3.3.87h-7.48c-1.65,0-2.78-.26-3.48-.87s-1.3-1.74-1.65-3.48l-13.47-56.07-13.39,55.98c-.43,1.74-.96,2.87-1.65,3.48-.7.61-1.91.87-3.48.87h-7.48ZM228.37,93.63c-4.52,0-9.04-.52-13.39-1.56-4.35-1.04-7.74-2.17-10-3.48-1.39-.78-2.35-1.65-2.69-2.43-.35-.78-.52-1.65-.52-2.43v-4.43c0-1.83.7-2.69,2-2.69.52,0,1.04.09,1.56.26.52.17,1.3.52,2.17.87,2.96,1.3,6.17,2.35,9.56,3.04,3.48.7,6.87,1.04,10.34,1.04,5.48,0,9.74-.96,12.69-2.87,2.96-1.91,4.52-4.69,4.52-8.26,0-2.43-.78-4.43-2.35-6.09-1.56-1.65-4.52-3.13-8.78-4.52l-12.6-3.91c-6.35-2-11.04-4.96-13.91-8.87-2.87-3.82-4.35-8.08-4.35-12.6,0-3.65.78-6.87,2.35-9.65s3.65-5.22,6.26-7.13c2.61-2,5.56-3.48,9.04-4.52s7.13-1.48,10.95-1.48c1.91,0,3.91.09,5.82.35,2,.26,3.82.61,5.65.96,1.74.43,3.39.87,4.96,1.39,1.56.52,2.78,1.04,3.65,1.56,1.22.7,2.09,1.39,2.61,2.17.52.7.78,1.65.78,2.87v4.09c0,1.83-.7,2.78-2,2.78-.7,0-1.83-.35-3.3-1.04-4.96-2.26-10.52-3.39-16.69-3.39-4.96,0-8.87.78-11.56,2.43s-4.09,4.17-4.09,7.74c0,2.43.87,4.52,2.61,6.17s4.96,3.3,9.56,4.78l12.34,3.91c6.26,2,10.78,4.78,13.47,8.35s4,7.65,4,12.17c0,3.74-.78,7.13-2.26,10.08-1.56,2.96-3.65,5.56-6.35,7.65-2.69,2.17-5.91,3.74-9.65,4.87-3.91,1.22-8,1.83-12.43,1.83h0Z"/>
  <path class="st0" d="M244.8,135.88c-28.6,21.12-70.15,32.34-105.88,32.34-50.07,0-95.19-18.52-129.27-49.29-2.69-2.43-.26-5.74,2.96-3.82,36.86,21.39,82.32,34.34,129.35,34.34,31.73,0,66.59-6.61,98.67-20.17,4.78-2.17,8.87,3.13,4.17,6.61h0Z"/>
  <path class="st0" d="M256.7,122.31c-3.65-4.69-24.17-2.26-33.47-1.13-2.78.35-3.22-2.09-.7-3.91,16.34-11.47,43.2-8.17,46.33-4.35,3.13,3.91-.87,30.77-16.17,43.64-2.35,2-4.61.96-3.56-1.65,3.48-8.61,11.21-27.99,7.56-32.6Z"/>
</svg>