<?xml version="1.0" encoding="UTF-8"?>
<svg id="Layer_1" xmlns="http://www.w3.org/2000/svg" version="1.1" viewBox="0 0 1072.61 180">
  <!-- Generator: Adobe Illustrator 29.8.2, SVG Export Plug-In . SVG Version: 2.1.1 Build 3)  -->
  <defs>
    <style>
      .st0 {
        fill-rule: evenodd;
      }

      .st0, .st1 {
        fill: #fff;
      }

      .st2 {
        fill: #ff3621;
      }
    </style>
  </defs>
  <path class="st2" d="M163.34,128.45v-28.13l-3.04-1.9-72.98,39.91L18.15,100.33v-16.34l69.18,37.63,76.4-41.43v-27.75l-3.04-1.9-73.36,40.29L20.81,54.33,87.32,17.84l53.59,29.27,4.18-2.28v-3.04l-57.77-31.55L10.92,51.67v4.18l76.4,41.81,69.18-38.01v16.72l-69.18,38.01L13.97,74.1l-3.04,1.9v28.13l76.4,41.43,69.18-37.63v16.34l-69.18,38.01L13.97,122.37l-3.04,1.9v4.18l76.4,41.43,76.02-41.43Z"/>
  <path class="st0" d="M308.54,18.61v128.09h-20.53v-9.5c0-.76-.38-1.52-1.14-1.52-.76-.38-1.52,0-1.9.38-7.22,7.98-17.86,12.92-29.65,12.92s-23.57-4.94-31.93-13.3c-8.36-8.74-12.92-20.53-12.92-33.45,0-26.23,19.77-46.75,44.85-46.75,11.78,0,22.81,4.56,29.65,12.16.38.38,1.14.76,1.9.38.76-.38,1.14-.76,1.14-1.52V18.61h20.53ZM231,102.23c0,16.34,12.54,28.89,28.89,28.89s28.89-12.54,28.89-28.89-12.54-28.89-28.89-28.89-28.89,12.54-28.89,28.89Z"/>
  <path class="st0" d="M417.25,57.37v89.32h-20.15v-9.5c0-.76-.38-1.52-1.14-1.52-.76-.38-1.52,0-1.9.38-7.22,8.36-17.86,12.92-29.65,12.92-25.09,0-44.85-20.53-44.85-46.75s19.77-46.75,44.85-46.75c12.16,0,22.81,4.18,29.65,12.16.38.38,1.14.76,1.9.38.76-.38,1.14-.76,1.14-1.52v-9.12s20.15,0,20.15,0ZM340.09,102.23c0,16.34,12.54,28.89,28.89,28.89s28.89-12.54,28.89-28.89-12.54-28.89-28.89-28.89-28.89,12.54-28.89,28.89Z"/>
  <path class="st0" d="M590.19,57.37v89.32h-20.15v-9.5c0-.76-.38-1.52-1.14-1.52-.76-.38-1.52,0-1.9.38-7.22,8.36-17.86,12.92-29.65,12.92-25.09,0-44.85-20.53-44.85-46.75s19.77-46.75,44.85-46.75c12.16,0,22.81,4.18,29.65,12.16.38.38,1.14.76,1.9.38.76-.38,1.14-.76,1.14-1.52v-9.12s20.15,0,20.15,0ZM513.03,102.23c0,16.34,12.54,28.89,28.89,28.89s28.89-12.54,28.89-28.89-12.54-28.89-28.89-28.89-28.89,12.54-28.89,28.89Z"/>
  <path class="st0" d="M628.2,136.05h-.76c-.76.38-1.14.76-1.14,1.52v9.12h-20.53V18.61h20.53v48.27c0,.76.38,1.52,1.14,1.52.76.38,1.52,0,1.9-.38,7.22-7.98,17.86-12.92,29.65-12.92s23.57,4.94,31.93,13.3c8.36,8.74,12.92,20.53,12.92,33.45,0,26.23-19.77,46.75-44.85,46.75-11.78,0-22.81-4.56-29.65-12.16-.38,0-.76-.38-1.14-.38ZM654.43,73.34c-16.34,0-28.89,12.54-28.89,28.89s12.54,28.89,28.89,28.89,28.89-12.54,28.89-28.89c0-16.34-12.92-28.89-28.89-28.89Z"/>
  <path class="st1" d="M762.76,75.62c1.9,0,3.8,0,4.94.38v-20.15c-.76,0-1.9-.38-3.42-.38-10.64,0-20.53,5.32-25.47,13.68-.38.76-1.14,1.14-1.9.76s-1.14-.76-1.14-1.52v-11.02h-20.15v89.32h20.53v-39.15c-.76-19.77,9.88-31.93,26.61-31.93Z"/>
  <rect class="st1" x="780.24" y="57.37" width="20.53" height="89.32"/>
  <path class="st1" d="M790.5,18.61c-6.84,0-12.54,5.32-12.54,12.16s5.7,12.16,12.54,12.16,12.54-5.32,12.54-12.16c0-6.46-5.7-12.16-12.54-12.16Z"/>
  <path class="st1" d="M861.58,55.47c-28.13,0-48.65,19.77-48.65,46.75,0,13.3,4.94,25.09,13.68,33.45,8.74,8.36,21.29,13.3,34.97,13.3,11.4,0,20.53-2.28,37.25-14.06l-11.4-11.78c-8.36,5.32-15.96,7.98-23.57,7.98-17.1,0-30.03-12.54-30.03-28.89s12.92-28.89,30.03-28.89c7.98,0,15.58,2.66,23.19,7.98l12.92-11.78c-15.58-12.92-29.27-14.06-38.39-14.06Z"/>
  <path class="st1" d="M934.18,107.55c.38-.38.76-.38,1.14-.38h0c.38,0,.76.38,1.14.76l32.69,39.15h25.09l-42.19-49.41c-.76-.76-.38-1.52,0-2.28l38.77-37.63h-24.71l-33.45,32.31c-.38.38-1.14.76-1.9.38s-1.14-.76-1.14-1.52V18.61h-20.53v128.09h20.53v-34.59c0-.38.38-.76.38-1.14l4.18-3.42Z"/>
  <path class="st1" d="M1028.06,148.98c16.72,0,33.83-9.88,33.83-28.51,0-12.16-7.98-20.53-24.33-25.85l-11.02-3.42c-7.6-2.28-11.02-5.7-11.02-10.64,0-5.32,4.94-9.12,12.16-9.12,6.84,0,12.92,4.18,16.72,11.78l16.34-8.36c-6.08-12.16-18.62-19.38-33.07-19.38-18.24,0-31.55,11.4-31.55,26.99,0,12.54,7.6,20.91,23.19,25.47l11.4,3.42c7.98,2.28,11.4,5.32,11.4,10.64,0,7.6-7.22,10.26-13.3,10.26-8.36,0-15.58-5.32-19.38-13.68l-16.72,8.36c5.32,13.68,19,22.05,35.35,22.05Z"/>
  <path class="st1" d="M473.88,148.22c6.46,0,12.16-.38,15.58-1.14v-17.1c-2.66.38-7.22.76-10.26.76-8.36,0-14.44-1.52-14.44-18.62v-36.49c0-.76.76-1.52,1.9-1.52h19.77v-15.96h-19.77c-1.14,0-1.9-.76-1.9-1.52v-26.61h-20.15v25.85c0,.76-.76,1.52-1.9,1.52h-14.06v15.96h14.06c1.14,0,1.9.76,1.9,1.52v41.43c-.38,31.93,21.29,31.93,29.27,31.93Z"/>
</svg>