<?xml version="1.0" encoding="UTF-8"?>
<svg id="Layer_1" xmlns="http://www.w3.org/2000/svg" version="1.1" viewBox="0 0 226.45 180">
  <!-- Generator: Adobe Illustrator 29.8.2, SVG Export Plug-In . SVG Version: 2.1.1 Build 3)  -->
  <defs>
    <style>
      .st0 {
        fill: #4285f4;
      }

      .st1 {
        fill: #fbbc05;
      }

      .st2 {
        fill: #34a853;
      }

      .st3 {
        fill: #ea4335;
      }
    </style>
  </defs>
  <path class="st3" d="M139.31,54.07l6.37.11,17.32-17.32.84-7.34c-13.74-12.24-31.87-19.69-51.69-19.69-35.88,0-66.16,24.41-75.12,57.48,1.89-1.32,5.93-.33,5.93-.33l34.6-5.69s1.78-2.94,2.68-2.8c8.18-8.99,19.77-14.11,31.93-14.11,10.26.02,19.71,3.65,27.14,9.64v.03Z"/>
  <path class="st0" d="M187.32,67.38c-4.02-14.83-12.31-27.92-23.49-37.86l-24.52,24.52c9.82,7.93,16.13,20.06,16.13,33.64v4.33c11.93,0,21.62,9.71,21.62,21.62s-9.71,21.62-21.62,21.62h-43.24l-4.33,4.35v25.95l4.33,4.31h43.24c31.03-.04,56.18-25.19,56.23-56.22-.02-19.14-9.64-36.06-24.34-46.25h0Z"/>
  <path class="st2" d="M68.91,169.88h43.21v-34.63h-43.21c-3.07,0-6.1-.66-8.9-1.93l-6.24,1.91-17.32,17.32-1.52,5.84c9.76,7.44,21.69,11.47,33.97,11.47v.02Z"/>
  <path class="st1" d="M68.91,57.43c-31.03.04-56.18,25.19-56.23,56.22,0,18.26,8.75,34.49,22.28,44.78l25.07-25.07c-7.75-3.5-12.74-11.21-12.74-19.71,0-11.93,9.71-21.62,21.62-21.62,8.77,0,16.3,5.29,19.71,12.75l25.07-25.07c-10.28-13.53-26.52-22.28-44.78-22.28h0Z"/>
</svg>