<?xml version="1.0" encoding="UTF-8"?>
<svg id="Layer_1" xmlns="http://www.w3.org/2000/svg" version="1.1" viewBox="0 0 358.41 180">
  <!-- Generator: Adobe Illustrator 29.8.2, SVG Export Plug-In . SVG Version: 2.1.1 Build 3)  -->
  <defs>
    <style>
      .st0 {
        fill: #4285f4;
      }

      .st1 {
        fill: #fbbc05;
      }

      .st2 {
        fill: #34a853;
      }

      .st3 {
        fill: #fff;
      }

      .st4 {
        fill: #ea4335;
      }
    </style>
  </defs>
  <path class="st4" d="M194.8,33.91l3.47.06,9.43-9.43.46-3.99c-7.49-6.66-17.35-10.72-28.14-10.72-19.53,0-36.02,13.29-40.91,31.3,1.03-.72,3.23-.18,3.23-.18l18.84-3.1s.97-1.61,1.46-1.51c8.4-9.18,22.49-10.25,32.17-2.43h0Z"/>
  <path class="st0" d="M220.97,41.16c-2.17-7.97-6.61-15.13-12.79-20.61l-13.35,13.35c5.55,4.46,8.78,11.2,8.78,18.32v2.36c6.5,0,11.77,5.29,11.77,11.77s-5.29,11.77-11.77,11.77h-23.54l-2.36,2.37v14.13l2.36,2.34h23.54c16.88-.05,30.55-13.72,30.58-30.61-.01-10.42-5.27-19.66-13.26-25.19h.03Z"/>
  <path class="st2" d="M156.47,96.98h23.54v-18.84h-23.54c-1.67,0-3.32-.36-4.84-1.05l-3.4,1.04-9.43,9.43-.83,3.18c5.3,4.07,11.81,6.27,18.5,6.25h0Z"/>
  <path class="st1" d="M156.47,35.74c-16.9.03-30.59,13.72-30.62,30.62,0,9.58,4.49,18.61,12.13,24.39l13.65-13.65c-4.22-1.9-6.94-6.1-6.94-10.73,0-6.5,5.29-11.77,11.77-11.77,4.63,0,8.83,2.72,10.73,6.94l13.65-13.65c-5.6-7.37-14.44-12.13-24.39-12.13h.01Z"/>
  <path class="st3" d="M34.43,156.35c-6.43,0-11.95-2.27-16.6-6.82-4.65-4.55-6.98-10.02-6.98-16.4s2.32-11.85,6.98-16.4c4.66-4.55,10.18-6.83,16.6-6.83,5.95-.09,11.69,2.22,15.92,6.4l-4.48,4.48c-3.07-2.96-7.18-4.59-11.44-4.53-4.64,0-8.58,1.64-11.82,4.94-3.18,3.16-4.93,7.48-4.84,11.95,0,4.69,1.61,8.67,4.84,11.95,3.08,3.23,7.36,5.02,11.82,4.94,4.73,0,8.63-1.52,11.74-4.65,1.82-1.82,3.03-4.55,3.46-7.99h-15.18v-6.35h21.37c.23,1.13.3,2.43.3,3.94,0,6.24-1.83,11.18-5.5,14.85-4.16,4.35-9.55,6.52-16.21,6.52l.03.02ZM84.08,152.11c-2.91,2.85-6.46,4.25-10.65,4.25s-7.75-1.43-10.65-4.25c-2.91-2.82-4.36-6.41-4.36-10.68s1.46-7.83,4.36-10.68,6.46-4.25,10.65-4.25,7.75,1.43,10.65,4.25,4.36,6.42,4.36,10.68-1.46,7.83-4.36,10.68ZM67.48,147.92c1.53,1.66,3.69,2.6,5.95,2.58,2.31,0,4.29-.86,5.95-2.58s2.49-3.88,2.49-6.49-.82-4.82-2.47-6.52-3.63-2.55-5.98-2.55c-2.26-.03-4.44.89-5.98,2.55-1.65,1.7-2.47,3.87-2.47,6.52s.83,4.77,2.49,6.49h0ZM116.84,152.11c-2.91,2.85-6.46,4.25-10.65,4.25s-7.75-1.43-10.65-4.25-4.36-6.41-4.36-10.68,1.46-7.83,4.36-10.68c2.91-2.85,6.46-4.25,10.65-4.25s7.75,1.43,10.65,4.25,4.36,6.42,4.36,10.68-1.46,7.83-4.36,10.68ZM100.23,147.92c1.53,1.66,3.69,2.6,5.95,2.58,2.31,0,4.29-.86,5.95-2.58s2.49-3.88,2.49-6.49-.82-4.82-2.47-6.52-3.63-2.55-5.98-2.55c-2.26-.03-4.44.89-5.98,2.55-1.65,1.7-2.47,3.87-2.47,6.52s.83,4.77,2.49,6.49h0ZM138.37,169.82c-3.32,0-6.12-.89-8.38-2.67s-3.89-3.83-4.87-6.18l5.73-2.38c.6,1.44,1.52,2.68,2.83,3.74s2.85,1.58,4.71,1.58c2.49,0,4.45-.76,5.86-2.27s2.12-3.69,2.12-6.52v-2.12h-.23c-1.82,2.27-4.48,3.4-7.87,3.4-3.82,0-7.16-1.46-10.03-4.36-2.82-2.78-4.38-6.59-4.31-10.54-.07-3.98,1.48-7.82,4.31-10.63,2.87-2.92,6.22-4.39,10.03-4.39,1.7,0,3.24.32,4.62.96s2.47,1.44,3.26,2.38h.23v-2.41h6.24v26.87c0,5.22-1.33,9.11-4,11.71-2.67,2.58-6.07,3.88-10.23,3.88v-.06ZM138.83,150.49c2.19.04,4.28-.91,5.7-2.58,1.53-1.72,2.29-3.86,2.29-6.44s-.76-4.78-2.29-6.52c-1.41-1.68-3.5-2.64-5.7-2.6-2.31,0-4.27.87-5.89,2.6s-2.44,3.91-2.44,6.52.81,4.72,2.44,6.44,3.59,2.58,5.89,2.58h0ZM163.71,111.47v43.98h-6.57v-43.98h6.57ZM181.72,156.35c-4.23,0-7.77-1.44-10.6-4.31s-4.25-6.42-4.25-10.65,1.36-7.98,4.11-10.77c2.6-2.74,6.23-4.26,10-4.2,1.81,0,3.5.33,5.04.99,1.44.59,2.75,1.46,3.85,2.55.92.92,1.74,1.93,2.44,3.03.58.94,1.07,1.92,1.47,2.95l.68,1.7-20,8.29c1.52,3.02,3.94,4.53,7.26,4.53,3.02,0,5.48-1.37,7.36-4.13l5.1,3.4c-1.14,1.7-2.74,3.23-4.82,4.59s-4.63,2.03-7.66,2.03h0ZM173.39,140.94l13.35-5.55c-.38-.95-1.07-1.71-2.12-2.29-1.06-.59-2.25-.89-3.46-.87-1.93,0-3.73.79-5.41,2.38s-2.49,3.71-2.41,6.35h.05ZM228.99,156.35c-5.98,0-10.98-2.02-15.02-6.07-4.04-4.05-6.07-9.08-6.07-15.13s2.02-11.09,6.07-15.13c4.05-4.04,9.05-6.07,15.02-6.07s11.09,2.21,14.9,6.63l-3.62,3.52c-2.73-3.44-6.52-5.16-11.28-5.16-4.43,0-8.15,1.49-11.22,4.48s-4.56,6.89-4.56,11.73,1.52,8.75,4.56,11.74c3.05,2.99,6.77,4.48,11.22,4.48,4.87,0,9.03-1.97,12.44-5.89l3.62,3.62c-1.9,2.27-4.28,4.08-6.98,5.3-2.86,1.31-5.97,1.98-9.11,1.95h.03ZM254.95,155.45h-5.22v-40.58h5.22v40.58ZM263.45,131c2.68-2.81,6.07-4.23,10.26-4.23s7.57,1.41,10.26,4.23c2.68,2.81,4.03,6.37,4.03,10.57s-1.33,7.76-4.03,10.57c-2.69,2.81-6.07,4.23-10.26,4.23s-7.57-1.41-10.26-4.23-4.03-6.37-4.03-10.57,1.33-7.76,4.03-10.57ZM267.33,148.85c1.82,1.83,3.93,2.75,6.37,2.75s4.55-.92,6.37-2.75,2.69-4.26,2.69-7.28-.9-5.45-2.69-7.28-3.93-2.75-6.37-2.75-4.55.92-6.37,2.75-2.69,4.26-2.69,7.28.9,5.45,2.69,7.28ZM316.84,155.45h-4.99v-3.85h-.23c-.79,1.32-2,2.45-3.62,3.34s-3.34,1.4-5.16,1.4c-3.48,0-6.11-1.06-7.9-3.18-1.79-2.12-2.69-4.95-2.69-8.5v-17h5.22v16.15c0,5.18,2.28,7.77,6.86,7.77,2.08.04,4.04-.93,5.27-2.6,1.35-1.71,2.07-3.83,2.04-6.01v-15.3h5.22v27.8ZM334.51,156.35c-3.59,0-6.69-1.42-9.29-4.25s-3.91-6.35-3.91-10.54,1.3-7.71,3.91-10.54,5.71-4.25,9.29-4.25c2.11,0,4.02.46,5.7,1.36s2.94,2.04,3.77,3.4h.23l-.23-3.85v-12.8h5.22v40.59h-4.99v-3.85h-.23c-.83,1.36-2.08,2.49-3.77,3.4-1.68.89-3.59,1.35-5.7,1.35h0ZM335.36,151.59c2.38.03,4.66-.96,6.26-2.72,1.72-1.81,2.58-4.25,2.58-7.28s-.86-5.5-2.58-7.28c-1.6-1.76-3.88-2.75-6.26-2.72-2.42,0-4.5.92-6.24,2.75s-2.6,4.26-2.6,7.28.86,5.45,2.6,7.28c1.59,1.77,3.86,2.77,6.24,2.75v-.05Z"/>
</svg>