<svg width="940" height="414" viewBox="0 0 940 414" fill="none" xmlns="http://www.w3.org/2000/svg">
<g clip-path="url(#clip0_10384_557)">
<path d="M788.422 0H763.176V44.5554H788.422V0Z" fill="white"/>
<path d="M788.422 62.7224H763.176V256.132H788.422V62.7224Z" fill="white"/>
<path d="M939.18 230.886V256.132H806.567V230.886L902.644 87.9458H816.961V62.7224H935.125V87.9458L839.026 230.886H939.18Z" fill="white"/>
<path d="M647.655 57.5703C618.825 57.5703 592.907 70.4956 575.009 91.082V0H549.785V357.541C549.785 374.341 536.165 387.984 519.342 387.984H324.791C307.99 387.984 294.348 374.364 294.348 357.541V147.6C294.348 112.273 285.231 85.8178 269.438 74.1246C269.326 74.035 269.214 73.9678 269.124 73.9006C255.124 63.6185 237.853 57.5703 219.148 57.5703C196.008 57.5703 175.063 66.8667 159.786 81.8977C156.941 84.6978 154.297 87.6995 151.856 90.8804C146.927 84.429 141.103 78.6944 134.54 73.9006C120.539 63.6185 103.268 57.5703 84.5634 57.5703C61.4457 57.5703 40.456 66.8667 25.201 81.8977V62.7225H0V256.132H25.2234V132.972C29.6588 104.209 54.591 82.0993 84.5858 82.0993C89.1332 82.0993 93.5685 82.6145 97.8247 83.5777C119.442 88.4611 134.54 108.084 134.54 130.261V256.132H159.763V139.759C159.763 131.628 161.443 123.541 164.96 116.216C164.983 116.171 165.005 116.104 165.05 116.059C174.772 95.9878 195.358 82.0993 219.148 82.0993C219.798 82.0993 220.447 82.0993 221.097 82.1217C248 82.9729 269.124 101.655 269.124 142.156V358.862C269.124 388.88 293.452 413.229 323.491 413.229H520.664C550.681 413.229 575.031 388.902 575.031 358.862V227.235C592.929 247.821 618.847 260.746 647.677 260.746C701.73 260.746 745.547 215.25 745.547 159.136C745.547 103.022 701.73 57.5255 647.677 57.5255L647.655 57.5703ZM647.655 234.56C607.535 234.56 575.009 200.802 575.009 159.158C575.009 117.515 607.535 83.757 647.655 83.757C687.775 83.757 720.301 117.515 720.301 159.158C720.301 200.802 687.775 234.56 647.655 234.56Z" fill="white"/>
<path d="M495.149 80.8672H348.961C328.845 80.8672 312.537 97.175 312.537 117.291V201.518C312.537 221.634 328.845 237.942 348.961 237.942H495.149C515.265 237.942 531.573 221.634 531.573 201.518V117.291C531.573 97.175 515.265 80.8672 495.149 80.8672ZM507.044 201.541C507.044 208.104 501.713 213.436 495.149 213.436H348.961C342.398 213.436 337.066 208.104 337.066 201.541V117.313C337.066 110.75 342.398 105.419 348.961 105.419H495.149C501.713 105.419 507.044 110.75 507.044 117.313V201.541Z" fill="white"/>
</g>
<defs>
<clipPath id="clip0_10384_557">
<rect width="939.18" height="413.229" fill="white"/>
</clipPath>
</defs>
</svg>
