<?xml version="1.0" encoding="UTF-8"?>
<svg id="Layer_1" xmlns="http://www.w3.org/2000/svg" version="1.1" viewBox="0 0 795.93 180">
  <!-- Generator: Adobe Illustrator 29.8.2, SVG Export Plug-In . SVG Version: 2.1.1 Build 3)  -->
  <defs>
    <style>
      .st0 {
        fill: #f25022;
      }

      .st1 {
        fill: #ffb900;
      }

      .st2 {
        fill: #00a4ef;
      }

      .st3 {
        fill: #7fba00;
      }

      .st4 {
        fill: #fff;
      }
    </style>
  </defs>
  <path class="st4" d="M281.63,102.55l-4.59,13h-.38c-.76-2.93-2.17-7.39-4.46-12.74l-24.59-61.79h-24.08v98.49h15.93v-60.77c0-3.82,0-8.15-.13-13.51-.13-2.68-.38-4.71-.51-6.24h.38c.76,3.82,1.66,6.63,2.29,8.41l29.56,71.86h11.21l29.3-72.5c.64-1.66,1.27-4.97,1.91-7.77h.38c-.38,7.26-.64,13.76-.76,17.71v62.43h16.95V40.76h-23.19l-25.23,61.79ZM346.1,68.53h16.56v70.59h-16.56v-70.59ZM354.5,38.72c-2.8,0-5.1,1.02-7.01,2.8-1.91,1.78-2.93,4.08-2.93,6.88s1.02,4.97,2.93,6.75,4.2,2.68,7.01,2.68,5.22-1.02,7.01-2.68c1.91-1.78,2.93-4.08,2.93-6.75s-1.02-4.97-2.93-6.88c-1.66-1.78-4.08-2.8-7.01-2.8M421.4,67.89c-3.06-.64-6.24-1.02-9.3-1.02-7.52,0-14.4,1.66-20.13,4.97-5.73,3.31-10.32,7.9-13.25,13.63-3.06,5.86-4.59,12.61-4.59,20.39,0,6.75,1.53,12.74,4.46,18.22,2.93,5.35,7.01,9.68,12.49,12.61,5.22,2.93,11.34,4.46,18.22,4.46,7.9,0,14.65-1.66,20-4.71l.13-.13v-15.29l-.64.51c-2.42,1.78-5.22,3.31-8.03,4.2-2.93,1.02-5.61,1.53-7.9,1.53-6.63,0-11.85-1.91-15.54-6.12-3.82-4.08-5.73-9.68-5.73-16.69s1.91-13,5.86-17.2c3.95-4.2,9.17-6.37,15.54-6.37,5.35,0,10.83,1.78,15.8,5.35l.64.51v-16.18l-.13-.13c-2.17-.89-4.59-1.91-7.9-2.55M476.05,67.38c-4.08,0-7.9,1.27-11.21,3.95-2.8,2.29-4.71,5.61-6.37,9.56h-.13v-12.36h-16.56v70.59h16.56v-36.06c0-6.12,1.27-11.21,4.08-14.91,2.8-3.82,6.37-5.73,10.7-5.73,1.53,0,3.06.38,4.97.64,1.78.51,3.06,1.02,3.95,1.66l.64.51v-16.56l-.38-.13c-1.15-.76-3.44-1.15-6.24-1.15M521.16,67c-11.59,0-20.9,3.44-27.39,10.19-6.63,6.75-9.81,16.05-9.81,27.78,0,10.96,3.31,19.88,9.68,26.37,6.37,6.37,15.03,9.68,25.86,9.68s20.39-3.44,26.88-10.32c6.63-6.88,9.81-16.05,9.81-27.39s-3.06-20.13-9.3-26.63c-5.99-6.5-14.78-9.68-25.74-9.68M534.41,121.28c-3.06,3.95-7.9,5.86-13.89,5.86s-10.83-1.91-14.27-6.12c-3.44-3.95-5.1-9.68-5.1-16.95s1.78-13.25,5.1-17.33c3.44-4.08,8.15-6.12,14.14-6.12s10.45,1.91,13.76,5.86c3.31,3.95,5.1,9.68,5.1,17.2-.25,7.64-1.66,13.63-4.84,17.58M593.14,97.84c-5.22-2.17-8.54-3.82-10.07-5.22-1.27-1.27-1.91-3.06-1.91-5.35,0-1.91.76-3.82,2.68-5.1s4.08-1.91,7.26-1.91c2.8,0,5.73.51,8.54,1.27s5.35,1.91,7.39,3.44l.64.51v-15.54l-.38-.13c-1.91-.76-4.46-1.53-7.52-2.17-3.06-.51-5.86-.76-8.15-.76-7.9,0-14.4,1.91-19.49,6.12-5.1,3.95-7.52,9.3-7.52,15.54,0,3.31.51,6.24,1.66,8.66s2.8,4.71,5.1,6.63c2.29,1.78,5.61,3.82,10.19,5.73,3.82,1.66,6.75,2.93,8.54,3.95,1.78,1.02,2.93,2.17,3.82,3.06.64,1.02,1.02,2.29,1.02,3.95,0,4.71-3.57,7.01-10.83,7.01-2.8,0-5.73-.51-9.17-1.66s-6.63-2.8-9.3-4.71l-.64-.51v16.18l.38.13c2.42,1.15,5.35,1.91,8.92,2.8,3.57.64,6.75,1.15,9.56,1.15,8.54,0,15.54-1.91,20.51-6.12,5.1-4.08,7.77-9.3,7.77-16.05,0-4.71-1.27-8.92-4.08-12.1-3.69-3.06-8.28-6.24-14.91-8.79M655.83,67c-11.59,0-20.9,3.44-27.39,10.19s-9.81,16.05-9.81,27.78c0,10.96,3.31,19.88,9.68,26.37,6.37,6.37,15.03,9.68,25.86,9.68s20.39-3.44,26.88-10.32c6.63-6.88,9.81-16.05,9.81-27.39s-3.06-20.13-9.3-26.63c-5.99-6.5-14.78-9.68-25.74-9.68M668.95,121.28c-3.06,3.95-7.9,5.86-13.89,5.86s-10.83-1.91-14.27-6.12c-3.44-3.95-5.1-9.68-5.1-16.95s1.78-13.25,5.1-17.33c3.44-4.08,8.15-6.12,14.14-6.12s10.45,1.91,13.76,5.86c3.31,3.95,5.1,9.68,5.1,17.2s-1.66,13.63-4.84,17.58M779.42,82.16v-13.63h-16.69v-20.9l-.51.13-15.8,4.71-.38.13v15.93h-24.97v-8.92c0-4.08,1.02-7.26,2.8-9.3s4.46-3.06,7.77-3.06c2.29,0,4.71.51,7.39,1.66l.64.38v-14.4l-.38-.13c-2.29-.76-5.35-1.27-9.3-1.27-4.97,0-9.3,1.15-13.25,3.06-3.95,2.17-6.88,5.1-9.05,9.05-2.17,3.82-3.31,8.15-3.31,13.12v9.81h-11.59v13.51h11.59v57.08h16.69v-56.95h24.97v36.31c0,14.91,7.01,22.42,21.02,22.42,2.29,0,4.71-.38,7.01-.76,2.42-.51,4.2-1.15,5.22-1.66l.13-.13v-13.63l-.64.51c-1.02.64-1.91,1.15-3.44,1.53-1.27.38-2.42.51-3.31.51-3.31,0-5.61-.76-7.26-2.68-1.53-1.78-2.29-4.71-2.29-9.05v-33.38h16.95Z"/>
  <path class="st0" d="M9.99,7.88h78.1v78.1H9.99V7.88Z"/>
  <path class="st3" d="M96.24,7.88h78.1v78.1h-78.1V7.88Z"/>
  <path class="st2" d="M9.99,94.14h78.1v78.1H9.99v-78.1Z"/>
  <path class="st1" d="M96.24,94.14h78.1v78.1h-78.1v-78.1Z"/>
</svg>