<?xml version="1.0" encoding="UTF-8"?>
<svg id="Layer_1" xmlns="http://www.w3.org/2000/svg" version="1.1" viewBox="0 0 725.3 180">
  <!-- Generator: Adobe Illustrator 29.8.2, SVG Export Plug-In . SVG Version: 2.1.1 Build 3)  -->
  <defs>
    <style>
      .st0 {
        fill: #29b5e8;
        fill-rule: evenodd;
      }
    </style>
  </defs>
  <path class="st0" d="M705.82,56.99h-1.87v2.32h1.87c.86,0,1.43-.38,1.43-1.16s-.52-1.16-1.43-1.16ZM701.65,54.87h4.2c2.32,0,3.83,1.25,3.83,3.2.02,1.11-.56,2.14-1.52,2.69l1.65,2.39v.48h-2.39l-1.6-2.32h-1.87v2.32h-2.32l.02-8.76ZM713.41,59.42c0-4.64-3.12-8.24-7.91-8.24s-7.81,3.38-7.81,8.24,3.12,8.25,7.81,8.25,7.91-3.56,7.91-8.25ZM715.37,59.42c0,5.53-3.69,10.12-9.87,10.12s-9.76-4.64-9.76-10.12,3.65-10.11,9.76-10.11,9.82,4.6,9.82,10.11h.05ZM162.85,79.05l-19.03,11.01,19.03,10.97c4.81,2.77,6.46,8.91,3.69,13.72-2.77,4.81-8.91,6.46-13.72,3.69l-34.07-19.74c-2.19-1.26-3.81-3.31-4.55-5.72-.33-1.05-.48-2.16-.44-3.26.02-.79.13-1.57.35-2.32.7-2.53,2.37-4.69,4.64-6.01l34.07-19.67c4.81-2.77,10.95-1.12,13.72,3.69,2.77,4.81,1.12,10.95-3.69,13.72v-.08ZM144.83,132.37l-34.06-19.64c-1.75-1.02-3.78-1.48-5.8-1.31-5.24.38-9.29,4.74-9.29,10v39.33c0,5.54,4.5,10.03,10.03,10.03,5.54,0,10.02-4.49,10.03-10.03v-22.06l19.12,11.1c4.81,2.77,10.95,1.11,13.72-3.7,2.77-4.81,1.11-10.95-3.7-13.72h-.05ZM105.53,93.9l-14.16,14.09c-.48.46-1.11.72-1.78.75h-4.16c-.67-.04-1.3-.3-1.79-.75l-14.15-14.09c-.44-.49-.69-1.11-.73-1.76v-4.17c.03-.66.29-1.29.73-1.79l14.15-14.17c.49-.45,1.12-.71,1.79-.74h4.16c.66.03,1.29.29,1.78.74l14.16,14.14c.44.49.7,1.13.73,1.79v4.17c-.03.67-.29,1.3-.73,1.8ZM94.23,89.97c-.05-.66-.31-1.3-.74-1.8l-4.13-4.07c-.48-.44-1.11-.71-1.76-.74h-.16c-.66.04-1.28.3-1.76.74l-4.1,4.07c-.44.5-.7,1.13-.73,1.8v.15c.03.66.29,1.28.73,1.76l4.1,4.1c.49.44,1.11.7,1.76.74h.16c.66-.04,1.28-.3,1.76-.74l4.11-4.1c.45-.49.72-1.11.77-1.76v-.15ZM30.18,47.69l34.07,19.67c4.82,2.78,10.97,1.12,13.75-3.69.88-1.52,1.34-3.25,1.35-5V19.33c0-5.54-4.5-10.03-10.03-10.03-5.54,0-10.02,4.49-10.03,10.03v22.06l-19.09-11.06c-4.81-2.77-10.95-1.11-13.72,3.7-2.77,4.81-1.11,10.95,3.7,13.72h0v-.05ZM104.97,68.67c2.02.17,4.05-.29,5.8-1.31l34.06-19.67c4.81-2.77,6.46-8.91,3.7-13.72-2.77-4.81-8.91-6.46-13.72-3.7l-19.07,11.06v-22.06c0-5.54-4.5-10.03-10.03-10.03-5.54,0-10.02,4.49-10.03,10.03v39.38c0,5.25,4.05,9.62,9.29,10.01ZM70.07,111.47c-2.02-.17-4.05.29-5.8,1.31l-34.08,19.58c-4.81,2.77-6.46,8.91-3.7,13.72,2.77,4.81,8.91,6.46,13.72,3.7l19.09-11.01v22.06c0,5.54,4.49,10.03,10.03,10.03,5.54,0,10.03-4.49,10.03-10.03h0v-39.43c-.03-5.22-4.07-9.55-9.28-9.94ZM60.78,93.05c.33-1.05.49-2.16.45-3.26-.03-.79-.15-1.56-.36-2.32-.69-2.54-2.36-4.7-4.64-6.01l-33.98-19.77c-4.81-2.77-10.95-1.12-13.72,3.69s-1.12,10.95,3.69,13.72l19.03,11.01-19.07,10.92c-4.81,2.78-6.45,8.94-3.67,13.75,2.78,4.81,8.94,6.45,13.75,3.67l34-19.74c2.2-1.25,3.83-3.29,4.57-5.71l-.05.06ZM483.36,34.27h-1.66c-2.36-.04-4.71.29-6.97,1-2.21.69-4.18,1.98-5.71,3.71h0c-1.56,1.82-2.66,3.98-3.22,6.32-.65,2.71-.96,5.48-.93,8.27v6.01h-6.63c-2.24,0-4.08,1.78-4.13,4.03-.03,1.14.39,2.25,1.16,3.1.79.81,1.85,1.29,2.97,1.36h6.58v49.04c0,1.11.46,2.18,1.25,2.96.82.76,1.91,1.18,3.03,1.16,2.27-.03,4.09-1.89,4.07-4.16v-49h7.13c1.12-.06,2.17-.53,2.96-1.32.81-.81,1.26-1.91,1.25-3.05v-.16c-.06-2.25-1.92-4.03-4.17-4.01h-7.17v-5.99c-.01-2.05.23-4.09.72-6.07.24-1.07.71-2.07,1.38-2.93.56-.59,1.27-1.02,2.04-1.25,1.37-.39,2.78-.57,4.2-.52h1.87c2.36,0,4.27-1.91,4.27-4.27s-1.91-4.27-4.27-4.27l-.05.06ZM630.33,66c.81-.79,1.28-1.88,1.29-3.02,0-1.11-.48-2.17-1.3-2.91h0c-1.55-1.62-4.12-1.68-5.74-.13-.04.04-.09.09-.13.13l-32.77,31.89v-53.74c-.03-2.35-1.97-4.23-4.32-4.2,0,0,0,0,0,0-1.11,0-2.17.45-2.95,1.24-.78.79-1.23,1.85-1.24,2.96v78.66c.03,2.3,1.89,4.17,4.19,4.19,2.35.03,4.28-1.84,4.32-4.19v-12.98l10.69-10.67,21.78,26.27c.37.55.89.99,1.51,1.24.57.21,1.18.32,1.79.33.99.02,1.95-.3,2.74-.89h.06c.87-.83,1.36-1.97,1.37-3.17,0-1.02-.37-2.01-1.03-2.79h0l-22.17-26.95,21.94-21.23v-.05ZM571.13,60.59c.81.79,1.26,1.88,1.25,3.01v53.29c-.02,2.31-1.88,4.17-4.19,4.19-1.11-.01-2.17-.46-2.96-1.24-.79-.78-1.24-1.84-1.24-2.95v-5.2c-10.32,11.58-28.07,12.59-39.65,2.27-.71-.64-1.39-1.31-2.04-2.01-11.36-12.26-11.36-31.2,0-43.45,10.57-11.48,28.43-12.22,39.91-1.65.62.57,1.21,1.17,1.78,1.79v-5.08c0-1.13.46-2.22,1.27-3.01,1.65-1.55,4.22-1.55,5.87,0v.06ZM563.99,90.27c.04-5.94-2.17-11.67-6.19-16.04-7.27-8.12-19.75-8.81-27.87-1.54-.54.48-1.05,1-1.54,1.54-4.03,4.37-6.25,10.1-6.22,16.04-.02,5.9,2.22,11.59,6.25,15.9,7.44,8.13,20.05,8.69,28.18,1.25.44-.4.85-.82,1.25-1.25,4.01-4.34,6.23-10.05,6.19-15.96l-.05.06ZM226.34,88.72c-3.61-1.56-7.3-2.92-11.06-4.05-3.3-.94-6.53-2.1-9.67-3.48-1.11-.54-2.11-1.3-2.93-2.23-.66-.77-1.02-1.76-1-2.77-.03-1.39.38-2.75,1.16-3.89,1.34-1.74,3.15-3.05,5.22-3.77,1.89-.76,3.9-1.18,5.94-1.23,3.62-.06,7.17,1.08,10.08,3.24,1.16.82,2.11,1.67,3.02,2.32.43.36.91.68,1.42.93.51.28,1.08.43,1.66.44.4,0,.79-.08,1.16-.23.37-.15.72-.37,1.02-.64.31-.29.57-.64.75-1.02.16-.37.24-.76.24-1.16-.02-.74-.21-1.46-.58-2.1-.75-1.28-1.71-2.42-2.84-3.37-2.1-1.79-4.44-3.27-6.97-4.39-2.54-1.21-5.31-1.89-8.13-1.99-6.23,0-11.44,1.42-15.22,4.02-1.98,1.25-3.66,2.93-4.92,4.9-1.36,2.41-2.06,5.14-2.03,7.91v.44c-.05,2.87.88,5.66,2.64,7.93,2.47,3.11,6.13,4.98,9.72,6.3s7.15,2.11,9.42,2.87c3.14.91,6.16,2.16,9.03,3.73,1.11.64,2.09,1.47,2.9,2.45.67.92,1.03,2.01,1.04,3.15v.09c.02,1.58-.47,3.12-1.4,4.39-1.52,1.84-3.53,3.2-5.8,3.91-2,.71-4.11,1.1-6.23,1.16-4.06.09-8.08-.81-11.71-2.62-1.32-.66-2.39-1.31-3.37-1.87-.48-.26-.93-.5-1.4-.7-.48-.2-.99-.31-1.51-.31-.36,0-.72.07-1.06.2-.34.14-.66.34-.92.6-.37.33-.68.72-.92,1.16-.22.44-.33.93-.33,1.43.02.81.28,1.59.74,2.25.81,1.08,1.81,2.01,2.95,2.74,1.48.97,3.04,1.82,4.64,2.57,4.06,1.81,8.43,2.8,12.87,2.9h0c5.98,0,11.16-1.38,15.51-4.64h0c4.29-3.1,6.86-8.06,6.91-13.36.05-2.63-.6-5.23-1.9-7.52-1.99-2.98-4.83-5.3-8.15-6.66ZM500.75,34.02c-1.11,0-2.17.46-2.95,1.24-.79.78-1.24,1.85-1.24,2.96v78.66c0,1.11.45,2.17,1.24,2.95,1.67,1.66,4.36,1.66,6.03-.01.78-.78,1.22-1.83,1.24-2.94V38.22c-.03-2.35-1.97-4.23-4.32-4.2,0,0,0,0,0,0ZM693.92,88.25v.42c0,1.11-.48,2.16-1.31,2.89-.81.7-1.84,1.08-2.9,1.07h-47.09c1.16,11.49,10.37,19.97,21.33,20.06h2.77c3.69-.06,7.27-1.22,10.3-3.33,3.13-2.11,5.76-4.88,7.7-8.13.36-.64.9-1.16,1.56-1.5.6-.33,1.28-.5,1.96-.5.75,0,1.49.2,2.14.58h0c1.18.84,1.9,2.19,1.92,3.65,0,.76-.2,1.51-.59,2.17h0c-2.67,4.29-6.24,7.96-10.45,10.76-4.3,2.89-9.34,4.47-14.52,4.54h-2.82c-7.98-.07-15.6-3.36-21.12-9.14-5.57-5.76-8.7-13.45-8.72-21.47-.03-8.16,3.11-16.01,8.75-21.9,5.56-5.8,13.25-9.07,21.28-9.07,7.63-.01,14.96,2.98,20.4,8.34,5.51,5.46,8.84,12.73,9.37,20.47l.06.08ZM684.72,84.28c-2.23-9.61-10.73-16.45-20.59-16.58-9.94.08-18.55,6.9-20.9,16.55l41.49.02ZM271.09,59.47c-6.31.01-12.39,2.38-17.04,6.65v-2.45c0-1.09-.42-2.14-1.16-2.94-.76-.8-1.81-1.26-2.91-1.27-2.29-.03-4.17,1.8-4.2,4.09,0,.04,0,.08,0,.12v54.46l.17.17h0c.06.2.16.39.28.57.58,1.03,1.54,1.78,2.67,2.11h1.08c.62,0,1.23-.14,1.79-.41.5-.23.94-.57,1.29-.99h0s.06-.1.12-.15,0,0,0,0c.21-.26.39-.55.52-.86.11-.28.19-.57.26-.87v-32.95c.1-4.51,1.93-8.8,5.13-11.98,6.54-6.66,17.23-6.75,23.89-.21,3.27,3.21,5.09,7.61,5.05,12.2v32.11c.01,2.33,1.91,4.2,4.24,4.19,1.08,0,2.12-.43,2.9-1.18.81-.79,1.26-1.88,1.25-3.01v-32.11c-.05-13.96-11.36-25.26-25.32-25.3ZM354.53,68.52c11.37,12.22,11.37,31.16,0,43.38-10.44,11.46-28.19,12.3-39.66,1.86-.65-.59-1.27-1.21-1.86-1.86-11.43-12.2-11.43-31.18,0-43.38,10.48-11.46,28.28-12.26,39.74-1.77.62.56,1.21,1.16,1.77,1.77ZM354.65,90.22c.04-5.92-2.17-11.64-6.18-16-7.21-8.11-19.64-8.84-27.75-1.62-.57.51-1.11,1.05-1.62,1.62-4.02,4.35-6.25,10.07-6.22,16-.02,5.9,2.2,11.59,6.22,15.92,7.28,8.11,19.76,8.78,27.87,1.5.53-.47,1.03-.97,1.5-1.5,4.01-4.33,6.21-10.02,6.18-15.92ZM445.2,59.83h0c-.48-.21-.99-.31-1.51-.31-1.71,0-3.25,1.02-3.94,2.58h0l-16.02,43.86-12.35-29.41h0c-.35-.79-.93-1.45-1.67-1.89-.72-.45-1.55-.68-2.4-.68-1.71.02-3.25,1.02-3.96,2.58h0l-12.41,29.43-16.11-43.85h0c-.27-.81-.81-1.5-1.53-1.95-.69-.44-1.5-.68-2.32-.68-.54,0-1.08.11-1.58.31h0c-2.02.94-2.96,3.3-2.12,5.38h0l19.75,53.25h0c.17.42.4.81.7,1.16.26.28.57.52.92.7.1.09.21.17.33.24.18.11.38.18.59.22.46.17.96.27,1.45.28.79-.02,1.56-.26,2.22-.71.68-.45,1.2-1.09,1.49-1.85h.06l12.53-29.95,12.55,29.84h0c.27.74.76,1.39,1.39,1.86.6.46,1.31.75,2.05.86h.52c.48,0,.96-.08,1.4-.26.38-.15.74-.35,1.07-.59.67-.53,1.19-1.22,1.51-2.01h0l19.74-52.97c.85-2.1-.15-4.5-2.24-5.38l-.08-.05Z"/>
</svg>